<mxfile host="Electron" modified="2024-07-13T12:18:25.225Z" agent="Mozilla/5.0 (Windows NT 10.0; Win64; x64) AppleWebKit/537.36 (KHTML, like Gecko) draw.io/24.6.4 Chrome/124.0.6367.207 Electron/30.0.6 Safari/537.36" etag="484bEKhExndS-gYxeOGL" version="24.6.4" type="device">
  <diagram name="第 1 页" id="Ib2CYUNX099RLpfWLOko">
    <mxGraphModel dx="780" dy="496" grid="1" gridSize="10" guides="1" tooltips="1" connect="1" arrows="1" fold="1" page="1" pageScale="1" pageWidth="827" pageHeight="1169" math="0" shadow="0">
      <root>
        <mxCell id="0" />
        <mxCell id="1" parent="0" />
        <mxCell id="48LXnbVJm9BpJN8wikLZ-12" value="" style="rounded=0;whiteSpace=wrap;html=1;" parent="1" vertex="1">
          <mxGeometry x="490" y="160" width="50" height="30" as="geometry" />
        </mxCell>
        <mxCell id="48LXnbVJm9BpJN8wikLZ-13" value="" style="rounded=0;whiteSpace=wrap;html=1;" parent="1" vertex="1">
          <mxGeometry x="490" y="190" width="50" height="35" as="geometry" />
        </mxCell>
        <mxCell id="48LXnbVJm9BpJN8wikLZ-14" value="..." style="rounded=0;whiteSpace=wrap;html=1;" parent="1" vertex="1">
          <mxGeometry x="490" y="220" width="50" height="30" as="geometry" />
        </mxCell>
        <mxCell id="48LXnbVJm9BpJN8wikLZ-15" value="" style="rounded=0;whiteSpace=wrap;html=1;" parent="1" vertex="1">
          <mxGeometry x="490" y="250" width="50" height="30" as="geometry" />
        </mxCell>
        <mxCell id="NrSso3P7FBRo7TX_v2nw-15" style="edgeStyle=elbowEdgeStyle;rounded=0;orthogonalLoop=1;jettySize=auto;html=1;entryX=0.16;entryY=0.056;entryDx=0;entryDy=0;entryPerimeter=0;" parent="1" source="48LXnbVJm9BpJN8wikLZ-16" target="NrSso3P7FBRo7TX_v2nw-13" edge="1">
          <mxGeometry relative="1" as="geometry">
            <mxPoint x="600" y="180" as="targetPoint" />
            <Array as="points">
              <mxPoint x="600" y="230" />
            </Array>
          </mxGeometry>
        </mxCell>
        <mxCell id="48LXnbVJm9BpJN8wikLZ-16" value="" style="rounded=0;whiteSpace=wrap;html=1;fillColor=#dae8fc;strokeColor=#6c8ebf;" parent="1" vertex="1">
          <mxGeometry x="490" y="280" width="50" height="30" as="geometry" />
        </mxCell>
        <mxCell id="NrSso3P7FBRo7TX_v2nw-14" style="edgeStyle=elbowEdgeStyle;rounded=0;orthogonalLoop=1;jettySize=auto;html=1;entryX=-0.044;entryY=0.256;entryDx=0;entryDy=0;entryPerimeter=0;" parent="1" source="48LXnbVJm9BpJN8wikLZ-17" target="NrSso3P7FBRo7TX_v2nw-2" edge="1">
          <mxGeometry relative="1" as="geometry">
            <mxPoint x="580" y="480" as="targetPoint" />
            <Array as="points">
              <mxPoint x="600" y="400" />
            </Array>
          </mxGeometry>
        </mxCell>
        <mxCell id="48LXnbVJm9BpJN8wikLZ-17" value="" style="rounded=0;whiteSpace=wrap;html=1;fillColor=#dae8fc;strokeColor=#6c8ebf;" parent="1" vertex="1">
          <mxGeometry x="490" y="310" width="50" height="30" as="geometry" />
        </mxCell>
        <mxCell id="NrSso3P7FBRo7TX_v2nw-12" style="edgeStyle=elbowEdgeStyle;rounded=0;orthogonalLoop=1;jettySize=auto;html=1;exitX=0;exitY=0.5;exitDx=0;exitDy=0;entryX=0;entryY=0.5;entryDx=0;entryDy=0;" parent="1" source="48LXnbVJm9BpJN8wikLZ-18" target="48LXnbVJm9BpJN8wikLZ-17" edge="1">
          <mxGeometry relative="1" as="geometry">
            <mxPoint x="470" y="320" as="targetPoint" />
            <Array as="points">
              <mxPoint x="470" y="340" />
            </Array>
          </mxGeometry>
        </mxCell>
        <mxCell id="48LXnbVJm9BpJN8wikLZ-18" value="" style="rounded=0;whiteSpace=wrap;html=1;fillColor=#fff2cc;strokeColor=#d6b656;" parent="1" vertex="1">
          <mxGeometry x="490" y="340" width="50" height="30" as="geometry" />
        </mxCell>
        <mxCell id="48LXnbVJm9BpJN8wikLZ-19" value="" style="rounded=0;whiteSpace=wrap;html=1;" parent="1" vertex="1">
          <mxGeometry x="490" y="370" width="50" height="30" as="geometry" />
        </mxCell>
        <mxCell id="48LXnbVJm9BpJN8wikLZ-20" value="" style="rounded=0;whiteSpace=wrap;html=1;" parent="1" vertex="1">
          <mxGeometry x="490" y="400" width="50" height="30" as="geometry" />
        </mxCell>
        <mxCell id="48LXnbVJm9BpJN8wikLZ-21" value="..." style="rounded=0;whiteSpace=wrap;html=1;" parent="1" vertex="1">
          <mxGeometry x="490" y="430" width="50" height="30" as="geometry" />
        </mxCell>
        <mxCell id="48LXnbVJm9BpJN8wikLZ-23" value="页目录表" style="text;html=1;align=center;verticalAlign=middle;resizable=0;points=[];autosize=1;strokeColor=none;fillColor=none;" parent="1" vertex="1">
          <mxGeometry x="400" y="340" width="70" height="30" as="geometry" />
        </mxCell>
        <mxCell id="NrSso3P7FBRo7TX_v2nw-1" value="" style="rounded=0;whiteSpace=wrap;html=1;" parent="1" vertex="1">
          <mxGeometry x="490" y="460" width="50" height="30" as="geometry" />
        </mxCell>
        <mxCell id="NrSso3P7FBRo7TX_v2nw-2" value="0" style="text;html=1;align=center;verticalAlign=middle;resizable=0;points=[];autosize=1;strokeColor=none;fillColor=none;" parent="1" vertex="1">
          <mxGeometry x="540" y="470" width="30" height="30" as="geometry" />
        </mxCell>
        <mxCell id="NrSso3P7FBRo7TX_v2nw-3" value="1MB" style="text;html=1;align=center;verticalAlign=middle;resizable=0;points=[];autosize=1;strokeColor=none;fillColor=none;" parent="1" vertex="1">
          <mxGeometry x="530" y="356" width="50" height="30" as="geometry" />
        </mxCell>
        <mxCell id="NrSso3P7FBRo7TX_v2nw-5" value="页表1" style="text;html=1;align=center;verticalAlign=middle;resizable=0;points=[];autosize=1;strokeColor=none;fillColor=none;" parent="1" vertex="1">
          <mxGeometry x="420" y="310" width="50" height="30" as="geometry" />
        </mxCell>
        <mxCell id="NrSso3P7FBRo7TX_v2nw-6" value="1MB+4KB" style="text;html=1;align=center;verticalAlign=middle;resizable=0;points=[];autosize=1;strokeColor=none;fillColor=none;" parent="1" vertex="1">
          <mxGeometry x="530" y="326" width="80" height="30" as="geometry" />
        </mxCell>
        <mxCell id="NrSso3P7FBRo7TX_v2nw-13" value="4MB" style="text;html=1;align=center;verticalAlign=middle;resizable=0;points=[];autosize=1;strokeColor=none;fillColor=none;" parent="1" vertex="1">
          <mxGeometry x="530" y="174" width="50" height="30" as="geometry" />
        </mxCell>
        <mxCell id="NrSso3P7FBRo7TX_v2nw-16" value="页表2" style="text;html=1;align=center;verticalAlign=middle;resizable=0;points=[];autosize=1;strokeColor=none;fillColor=none;" parent="1" vertex="1">
          <mxGeometry x="420" y="280" width="50" height="30" as="geometry" />
        </mxCell>
        <mxCell id="NrSso3P7FBRo7TX_v2nw-17" value="整个页表1指向的&lt;div&gt;物理地址0-4MB&lt;/div&gt;" style="text;html=1;align=center;verticalAlign=middle;resizable=0;points=[];autosize=1;strokeColor=none;fillColor=none;" parent="1" vertex="1">
          <mxGeometry x="598" y="370" width="110" height="40" as="geometry" />
        </mxCell>
        <mxCell id="NrSso3P7FBRo7TX_v2nw-18" value="页表1首个表项&lt;div&gt;指向的位置：0处&lt;/div&gt;" style="text;html=1;align=center;verticalAlign=middle;resizable=0;points=[];autosize=1;strokeColor=none;fillColor=none;" parent="1" vertex="1">
          <mxGeometry x="598" y="455" width="110" height="40" as="geometry" />
        </mxCell>
        <mxCell id="NrSso3P7FBRo7TX_v2nw-19" value="页表2首个表项&lt;div&gt;指向的位置：4MB处&lt;/div&gt;" style="text;html=1;align=center;verticalAlign=middle;resizable=0;points=[];autosize=1;strokeColor=none;fillColor=none;" parent="1" vertex="1">
          <mxGeometry x="596" y="265" width="130" height="40" as="geometry" />
        </mxCell>
        <mxCell id="NrSso3P7FBRo7TX_v2nw-20" value="整个页表2指向的&lt;div&gt;物理地址4MB-8MB&lt;/div&gt;" style="text;html=1;align=center;verticalAlign=middle;resizable=0;points=[];autosize=1;strokeColor=none;fillColor=none;" parent="1" vertex="1">
          <mxGeometry x="598" y="164" width="120" height="40" as="geometry" />
        </mxCell>
        <mxCell id="NrSso3P7FBRo7TX_v2nw-22" value="4MB&lt;div&gt;物理&lt;/div&gt;&lt;div&gt;地址&lt;/div&gt;&lt;div&gt;空间&lt;/div&gt;" style="rounded=0;whiteSpace=wrap;html=1;fillColor=none;" parent="1" vertex="1">
          <mxGeometry x="340" y="190" width="50" height="300" as="geometry" />
        </mxCell>
        <mxCell id="NrSso3P7FBRo7TX_v2nw-28" value="" style="endArrow=none;dashed=1;html=1;rounded=0;exitX=1;exitY=0;exitDx=0;exitDy=0;entryX=0;entryY=0;entryDx=0;entryDy=0;" parent="1" source="NrSso3P7FBRo7TX_v2nw-22" target="48LXnbVJm9BpJN8wikLZ-13" edge="1">
          <mxGeometry width="50" height="50" relative="1" as="geometry">
            <mxPoint x="470" y="390" as="sourcePoint" />
            <mxPoint x="520" y="340" as="targetPoint" />
          </mxGeometry>
        </mxCell>
        <mxCell id="NrSso3P7FBRo7TX_v2nw-29" value="" style="endArrow=none;dashed=1;html=1;rounded=0;exitX=1;exitY=1;exitDx=0;exitDy=0;entryX=0;entryY=1;entryDx=0;entryDy=0;" parent="1" source="NrSso3P7FBRo7TX_v2nw-22" target="NrSso3P7FBRo7TX_v2nw-1" edge="1">
          <mxGeometry width="50" height="50" relative="1" as="geometry">
            <mxPoint x="470" y="390" as="sourcePoint" />
            <mxPoint x="520" y="340" as="targetPoint" />
          </mxGeometry>
        </mxCell>
        <mxCell id="NrSso3P7FBRo7TX_v2nw-30" value="" style="rounded=0;whiteSpace=wrap;html=1;fillColor=#dae8fc;strokeColor=#6c8ebf;" parent="1" vertex="1">
          <mxGeometry x="230" y="310" width="50" height="30" as="geometry" />
        </mxCell>
        <mxCell id="NrSso3P7FBRo7TX_v2nw-32" style="edgeStyle=orthogonalEdgeStyle;rounded=0;orthogonalLoop=1;jettySize=auto;html=1;entryX=0.013;entryY=0.452;entryDx=0;entryDy=0;entryPerimeter=0;exitX=1;exitY=0.5;exitDx=0;exitDy=0;" parent="1" source="NrSso3P7FBRo7TX_v2nw-41" target="NrSso3P7FBRo7TX_v2nw-22" edge="1">
          <mxGeometry relative="1" as="geometry" />
        </mxCell>
        <mxCell id="NrSso3P7FBRo7TX_v2nw-33" value="" style="rounded=0;whiteSpace=wrap;html=1;fillColor=#dae8fc;strokeColor=#6c8ebf;" parent="1" vertex="1">
          <mxGeometry x="230" y="280" width="50" height="30" as="geometry" />
        </mxCell>
        <mxCell id="NrSso3P7FBRo7TX_v2nw-36" value="页表" style="text;html=1;align=center;verticalAlign=middle;resizable=0;points=[];autosize=1;strokeColor=none;fillColor=none;" parent="1" vertex="1">
          <mxGeometry x="230" y="430" width="50" height="30" as="geometry" />
        </mxCell>
        <mxCell id="NrSso3P7FBRo7TX_v2nw-37" value="" style="rounded=0;whiteSpace=wrap;html=1;fillColor=#dae8fc;strokeColor=#6c8ebf;" parent="1" vertex="1">
          <mxGeometry x="230" y="340" width="50" height="30" as="geometry" />
        </mxCell>
        <mxCell id="NrSso3P7FBRo7TX_v2nw-43" style="edgeStyle=elbowEdgeStyle;rounded=0;orthogonalLoop=1;jettySize=auto;html=1;exitX=1;exitY=0.5;exitDx=0;exitDy=0;entryX=0;entryY=0.5;entryDx=0;entryDy=0;" parent="1" source="NrSso3P7FBRo7TX_v2nw-38" target="NrSso3P7FBRo7TX_v2nw-44" edge="1">
          <mxGeometry relative="1" as="geometry">
            <mxPoint x="300" y="150" as="targetPoint" />
            <Array as="points">
              <mxPoint x="300" y="260" />
            </Array>
          </mxGeometry>
        </mxCell>
        <mxCell id="NrSso3P7FBRo7TX_v2nw-38" value="" style="rounded=0;whiteSpace=wrap;html=1;fillColor=#dae8fc;strokeColor=#6c8ebf;" parent="1" vertex="1">
          <mxGeometry x="230" y="370" width="50" height="30" as="geometry" />
        </mxCell>
        <mxCell id="NrSso3P7FBRo7TX_v2nw-39" value="" style="rounded=0;whiteSpace=wrap;html=1;fillColor=#dae8fc;strokeColor=#6c8ebf;" parent="1" vertex="1">
          <mxGeometry x="230" y="250" width="50" height="30" as="geometry" />
        </mxCell>
        <mxCell id="NrSso3P7FBRo7TX_v2nw-40" value="" style="rounded=0;whiteSpace=wrap;html=1;fillColor=#dae8fc;strokeColor=#6c8ebf;" parent="1" vertex="1">
          <mxGeometry x="230" y="280" width="50" height="30" as="geometry" />
        </mxCell>
        <mxCell id="NrSso3P7FBRo7TX_v2nw-41" value="" style="rounded=0;whiteSpace=wrap;html=1;fillColor=#dae8fc;strokeColor=#6c8ebf;" parent="1" vertex="1">
          <mxGeometry x="230" y="400" width="50" height="30" as="geometry" />
        </mxCell>
        <mxCell id="NrSso3P7FBRo7TX_v2nw-44" value="4MB&lt;div&gt;空间&lt;/div&gt;" style="rounded=0;whiteSpace=wrap;html=1;" parent="1" vertex="1">
          <mxGeometry x="340" y="110" width="50" height="50" as="geometry" />
        </mxCell>
        <mxCell id="NrSso3P7FBRo7TX_v2nw-45" value="" style="rounded=0;whiteSpace=wrap;html=1;fillColor=none;perimeterSpacing=0;" parent="1" vertex="1">
          <mxGeometry x="230" y="250" width="50" height="180" as="geometry" />
        </mxCell>
        <mxCell id="NrSso3P7FBRo7TX_v2nw-46" value="" style="rounded=0;whiteSpace=wrap;html=1;fillColor=#fff2cc;strokeColor=#d6b656;" parent="1" vertex="1">
          <mxGeometry x="130" y="317" width="50" height="30" as="geometry" />
        </mxCell>
        <mxCell id="NrSso3P7FBRo7TX_v2nw-47" style="edgeStyle=orthogonalEdgeStyle;rounded=0;orthogonalLoop=1;jettySize=auto;html=1;entryX=-0.013;entryY=0.454;entryDx=0;entryDy=0;entryPerimeter=0;" parent="1" source="NrSso3P7FBRo7TX_v2nw-46" target="NrSso3P7FBRo7TX_v2nw-45" edge="1">
          <mxGeometry relative="1" as="geometry" />
        </mxCell>
        <mxCell id="NrSso3P7FBRo7TX_v2nw-48" value="" style="rounded=0;whiteSpace=wrap;html=1;fillColor=none;dashed=1;fontColor=#ffffff;strokeColor=#B20000;strokeWidth=1;" parent="1" vertex="1">
          <mxGeometry x="120" y="90" width="280" height="410" as="geometry" />
        </mxCell>
        <mxCell id="NrSso3P7FBRo7TX_v2nw-49" value="&lt;font style=&quot;font-size: 16px;&quot;&gt;&lt;b style=&quot;&quot;&gt;&lt;font style=&quot;font-size: 16px;&quot;&gt;二级页表&lt;/font&gt;&lt;/b&gt;&lt;b style=&quot;background-color: initial;&quot;&gt;地址指向&lt;/b&gt;&lt;b style=&quot;background-color: initial;&quot;&gt;关系&lt;/b&gt;&lt;/font&gt;" style="text;html=1;align=center;verticalAlign=middle;resizable=0;points=[];autosize=1;strokeColor=none;fillColor=none;" parent="1" vertex="1">
          <mxGeometry x="160" y="90" width="180" height="30" as="geometry" />
        </mxCell>
        <mxCell id="NrSso3P7FBRo7TX_v2nw-50" value="" style="rounded=0;whiteSpace=wrap;html=1;fillColor=none;dashed=1;fontColor=#ffffff;strokeColor=#001DBC;strokeWidth=1;" parent="1" vertex="1">
          <mxGeometry x="408" y="90" width="320" height="410" as="geometry" />
        </mxCell>
        <mxCell id="NrSso3P7FBRo7TX_v2nw-51" value="&lt;span style=&quot;font-size: 16px;&quot;&gt;&lt;b&gt;4MB物理地址内存布置&lt;/b&gt;&lt;/span&gt;" style="text;html=1;align=center;verticalAlign=middle;resizable=0;points=[];autosize=1;strokeColor=none;fillColor=none;" parent="1" vertex="1">
          <mxGeometry x="445" y="90" width="190" height="30" as="geometry" />
        </mxCell>
      </root>
    </mxGraphModel>
  </diagram>
</mxfile>
